# xmcd
#
# Track frame offsets: 
#        182
#        8290
#        29827
#        51452
#        71040
#        101157
#        129935
#        159052
#        180465
#        210725
#        237277
#        264280
#        295095
#
# Disc length: 4394 seconds
#
# Revision: 0
# Processed by: cddbd v1.5.2PL0 Copyright (c) Steve Scherf et al.
# Submitted via: ExactAudioCopy v1.0b3
#
DISCID=ad11280d
DTITLE=Louisiana Red - Last Mohican Of The Blues
DYEAR=1992
DGENRE=Blues
TTITLE0=Dedicated To Johnny Shines And Homesick James
TTITLE1=Long Time Ago
TTITLE2=My Baby Went To N.Y.
TTITLE3=All You Texas Woman
TTITLE4=Devil s Daughter
TTITLE5=Memory Of The Blues Experience
TTITLE6=After Awhile
TTITLE7=You Wreck My Mind Baby
TTITLE8=Where s My Friends
TTITLE9=I Wonder Why
TTITLE10=Last Mohican Of The Blues
TTITLE11=Blues Nightshift
TTITLE12=Lullaby For Majka Jurkowska Jo Ann Kelly Alexis Korner
EXTD=
EXTT0=
EXTT1=
EXTT2=
EXTT3=
EXTT4=
EXTT5=
EXTT6=
EXTT7=
EXTT8=
EXTT9=
EXTT10=
EXTT11=
EXTT12=
PLAYORDER=
